# xmcd CD database file
#
# Track frame offsets:
#	150
#	30250
#	68721
#	100806
#	127209
#	153107
#	174386
#	212103
#
# Disc length: 3061 seconds
#
# Revision: 2
# Processed by: cddbd v1.5.2PL0 Copyright (c) Steve Scherf et al.
# Submitted via: CDex 1.70beta2
#
DISCID=620bf308
DTITLE=Tony Pancella and Larry Willis - Alter Ego
DYEAR=2006
DGENRE=Jazz
TTITLE0=Alter Ego
TTITLE1=Annika's Lullabye
TTITLE2=To Wisdom, The Prize
TTITLE3=Just Wait and See
TTITLE4=Don't Blame Me
TTITLE5=Single Petal of a Rose
TTITLE6=Alone Together
TTITLE7=Blue in Green
EXTD=YEAR: 2006
EXTT0=
EXTT1=
EXTT2=
EXTT3=
EXTT4=
EXTT5=
EXTT6=
EXTT7=
PLAYORDER=
